<svg width="37" height="37" viewBox="0 0 37 37" fill="none" xmlns="http://www.w3.org/2000/svg">
<rect x="0.0283203" y="0.649414" width="36" height="36" rx="4" fill="#FF4D18"/>
<path d="M26.8283 16.1687H11.7483C11.461 16.1687 11.2283 15.9466 11.2283 15.6724V11.7022C11.2283 11.428 11.461 11.2059 11.7483 11.2059H32.0283L27.5901 6.97021C27.102 6.50433 26.4409 6.24316 25.7513 6.24316H12.3054C11.6157 6.24316 10.9547 6.50433 10.4665 6.97021L6.79012 10.4789C6.30262 10.9441 6.02832 11.5757 6.02832 12.2332V31.0564H11.2283V21.6271C11.2283 21.3529 11.461 21.1309 11.7483 21.1309H26.8283L32.0283 16.1681L26.8283 16.1687Z" fill="black"/>
</svg>
