<svg width="25" height="25" viewBox="0 0 25 25" fill="none" xmlns="http://www.w3.org/2000/svg">
<mask id="mask0_123_5107" style="mask-type:alpha" maskUnits="userSpaceOnUse" x="0" y="0" width="25" height="25">
<rect x="0.925781" y="0.537109" width="24" height="24" fill="#D9D9D9"/>
</mask>
<g mask="url(#mask0_123_5107)">
<path d="M12.9276 16.1141C14.0608 16.1141 15.0232 15.7175 15.8149 14.9244C16.6065 14.1312 17.0024 13.168 17.0024 12.0349C17.0024 10.9017 16.6058 9.93928 15.8126 9.14761C15.0195 8.35594 14.0563 7.96011 12.9231 7.96011C11.79 7.96011 10.8275 8.35669 10.0359 9.14986C9.2442 9.94303 8.84837 10.9062 8.84837 12.0394C8.84837 13.1725 9.24495 14.1349 10.0381 14.9266C10.8313 15.7183 11.7945 16.1141 12.9276 16.1141ZM12.9254 14.7371C12.1754 14.7371 11.5379 14.4746 11.0129 13.9496C10.4879 13.4246 10.2254 12.7871 10.2254 12.0371C10.2254 11.2871 10.4879 10.6496 11.0129 10.1246C11.5379 9.59961 12.1754 9.33711 12.9254 9.33711C13.6754 9.33711 14.3129 9.59961 14.8379 10.1246C15.3629 10.6496 15.6254 11.2871 15.6254 12.0371C15.6254 12.7871 15.3629 13.4246 14.8379 13.9496C14.3129 14.4746 13.6754 14.7371 12.9254 14.7371ZM12.9266 19.0371C10.6271 19.0371 8.53187 18.4028 6.64087 17.1341C4.74987 15.8656 3.35753 14.1666 2.46387 12.0371C3.35753 9.90761 4.74937 8.20861 6.63937 6.94011C8.52953 5.67144 10.6245 5.03711 12.9241 5.03711C15.2236 5.03711 17.3189 5.67144 19.2099 6.94011C21.1009 8.20861 22.4932 9.90761 23.3869 12.0371C22.4932 14.1666 21.1014 15.8656 19.2114 17.1341C17.3212 18.4028 15.2263 19.0371 12.9266 19.0371ZM12.9254 17.5371C14.8087 17.5371 16.5379 17.0413 18.1129 16.0496C19.6879 15.0579 20.892 13.7204 21.7254 12.0371C20.892 10.3538 19.6879 9.01628 18.1129 8.02461C16.5379 7.03294 14.8087 6.53711 12.9254 6.53711C11.042 6.53711 9.31287 7.03294 7.73787 8.02461C6.16287 9.01628 4.9587 10.3538 4.12537 12.0371C4.9587 13.7204 6.16287 15.0579 7.73787 16.0496C9.31287 17.0413 11.042 17.5371 12.9254 17.5371Z" fill="#8E8E8E"/>
</g>
</svg>
