<svg width="766" height="109" viewBox="0 0 766 109" fill="none" xmlns="http://www.w3.org/2000/svg">
<path d="M155.677 20.2388V2.95883C155.677 1.76589 154.67 0.798828 153.427 0.798828H135.427C134.184 0.798828 133.177 1.76589 133.177 2.95883V20.2388C133.177 21.4318 134.184 22.3988 135.427 22.3988H153.427C154.67 22.3988 155.677 21.4318 155.677 20.2388Z" fill="white"/>
<path d="M135.427 43.9988C134.184 43.9988 133.177 44.9654 133.177 46.1588V108.799L152.381 90.3632C154.49 88.3382 155.677 85.5896 155.677 82.7276V46.1615C155.677 44.9681 154.67 44.0015 153.427 44.0015H135.427V43.9988Z" fill="white"/>
<path d="M742.926 0.798828V41.8388C742.926 43.0322 741.919 43.9988 740.676 43.9988H677.675C676.432 43.9988 675.425 43.0322 675.425 41.8388V0.798828H652.925V39.5249C652.925 42.3896 654.109 45.1355 656.221 47.1605L672.132 62.4344C674.241 64.4594 677.104 65.5988 680.085 65.5988H740.676C741.919 65.5988 742.926 66.5654 742.926 67.7588V85.0388C742.926 86.2322 741.919 87.1988 740.676 87.1988H675.425L697.925 108.799H738.265C741.249 108.799 744.11 107.662 746.219 105.634L762.129 90.3605C764.239 88.3355 765.426 85.5869 765.426 82.7249V0.798828H742.926Z" fill="white"/>
<path d="M452.111 87.1988C450.868 87.1988 449.861 86.2322 449.861 85.0388V0.798828H427.361V82.7249C427.361 85.5896 428.545 88.3355 430.657 90.3605L446.567 105.634C448.677 107.659 451.54 108.799 454.521 108.799H517.361L539.862 87.1988H452.111Z" fill="white"/>
<path d="M570.799 87.1988C569.556 87.1988 568.549 86.2322 568.549 85.0388V0.798828H546.049V82.7249C546.049 85.5896 547.233 88.3355 549.345 90.3605L565.256 105.634C567.365 107.659 570.228 108.799 573.21 108.799H636.05L658.55 87.1988H570.799Z" fill="white"/>
<path d="M198.424 108.799V24.5588C198.424 23.3654 199.431 22.3988 200.674 22.3988H263.675C264.918 22.3988 265.925 23.3654 265.925 24.5588V108.799H288.425V26.8727C288.425 24.008 287.241 21.2621 285.129 19.2371L269.218 3.96323C267.112 1.93553 264.249 0.798828 261.265 0.798828H214.335C211.351 0.798828 208.49 1.93553 206.381 3.96323L198.427 11.5988V0.798828H187.177L175.927 11.5988V108.799H198.427H198.424Z" fill="white"/>
<path d="M386.981 0.798828H328.802C325.818 0.798828 322.957 1.93553 320.848 3.96323L301.644 22.3988H389.395C390.638 22.3988 391.645 23.3654 391.645 24.5588V41.8388C391.645 43.0322 390.638 43.9988 389.395 43.9988H328.805C325.82 43.9988 322.96 45.1355 320.851 47.1632L304.94 62.4371C302.831 64.4621 301.644 67.2107 301.644 70.0727V82.7249C301.644 85.5896 302.828 88.3355 304.94 90.3605L320.851 105.634C322.96 107.659 325.823 108.799 328.805 108.799H364.484C367.468 108.799 370.329 107.662 372.438 105.634L391.642 87.1988H326.391C325.148 87.1988 324.141 86.2322 324.141 85.0388V67.7588C324.141 66.5654 325.148 65.5988 326.391 65.5988H389.392C390.635 65.5988 391.642 66.5654 391.642 67.7588V108.799H414.142V26.8727C414.142 24.008 412.958 21.2621 410.846 19.2371L394.935 3.96323C392.826 1.93823 389.963 0.798828 386.981 0.798828Z" fill="white"/>
<path d="M90.4264 43.9988H25.176C23.9328 43.9988 22.9259 43.0322 22.9259 41.8388V24.5588C22.9259 23.3654 23.9328 22.3988 25.176 22.3988H112.927L93.7227 3.96323C91.6105 1.93553 88.7502 0.798828 85.7661 0.798828H27.5863C24.6022 0.798828 21.7419 1.93553 19.6297 3.96323L3.72206 19.2344C1.61267 21.2594 0.425781 24.008 0.425781 26.87V108.796H22.9259V67.7561C22.9259 66.5627 23.9328 65.5961 25.176 65.5961H90.4264L112.927 43.9961H90.4264V43.9988Z" fill="white"/>
</svg>
