<svg width="2720" height="400" viewBox="0 0 2720 400" fill="none" xmlns="http://www.w3.org/2000/svg">
<path d="M552 72V8C552 3.58172 548.418 0 544 0H480C475.582 0 472 3.58172 472 8V72C472 76.4183 475.582 80 480 80H544C548.418 80 552 76.4183 552 72Z" fill="#231916"/>
<path d="M480 160C475.58 160 472 163.58 472 168V400L540.28 331.72C547.78 324.22 552 314.04 552 303.44V168.01C552 163.59 548.42 160.01 544 160.01H480V160Z" fill="#231916"/>
<path d="M2639.98 0V152C2639.98 156.42 2636.4 160 2631.98 160H2407.98C2403.56 160 2399.98 156.42 2399.98 152V0H2319.98V143.43C2319.98 154.04 2324.19 164.21 2331.7 171.71L2388.27 228.28C2395.77 235.78 2405.95 240 2416.55 240H2631.98C2636.4 240 2639.98 243.58 2639.98 248V312C2639.98 316.42 2636.4 320 2631.98 320H2399.98L2479.98 400H2623.41C2634.02 400 2644.19 395.79 2651.69 388.28L2708.26 331.71C2715.76 324.21 2719.98 314.03 2719.98 303.43V0H2639.98Z" fill="#231916"/>
<path d="M1605.98 320C1601.56 320 1597.98 316.42 1597.98 312V0H1517.98V303.43C1517.98 314.04 1522.19 324.21 1529.7 331.71L1586.27 388.28C1593.77 395.78 1603.95 400 1614.55 400H1837.98L1917.98 320H1605.98Z" fill="#231916"/>
<path d="M2027.98 320C2023.56 320 2019.98 316.42 2019.98 312V0H1939.98V303.43C1939.98 314.04 1944.19 324.21 1951.7 331.71L2008.27 388.28C2015.77 395.78 2025.95 400 2036.55 400H2259.98L2339.98 320H2027.98Z" fill="#231916"/>
<path d="M703.99 400V88C703.99 83.58 707.57 80 711.99 80H935.99C940.41 80 943.99 83.58 943.99 88V400H1023.99V96.57C1023.99 85.96 1019.78 75.79 1012.27 68.29L955.7 11.72C948.21 4.21 938.03 0 927.42 0H760.56C749.95 0 739.78 4.21 732.28 11.72L704 40V0H664L624 40V400H704H703.99Z" fill="#231916"/>
<path d="M1374.41 0H1167.55C1156.94 0 1146.77 4.21 1139.27 11.72L1070.99 80H1382.99C1387.41 80 1390.99 83.58 1390.99 88V152C1390.99 156.42 1387.41 160 1382.99 160H1167.56C1156.95 160 1146.78 164.21 1139.28 171.72L1082.71 228.29C1075.21 235.79 1070.99 245.97 1070.99 256.57V303.43C1070.99 314.04 1075.2 324.21 1082.71 331.71L1139.28 388.28C1146.78 395.78 1156.96 400 1167.56 400H1294.42C1305.03 400 1315.2 395.79 1322.7 388.28L1390.98 320H1158.98C1154.56 320 1150.98 316.42 1150.98 312V248C1150.98 243.58 1154.56 240 1158.98 240H1382.98C1387.4 240 1390.98 243.58 1390.98 248V400H1470.98V96.57C1470.98 85.96 1466.77 75.79 1459.26 68.29L1402.69 11.72C1395.19 4.22 1385.01 0 1374.41 0Z" fill="#231916"/>
<path d="M320 160H88C83.58 160 80 156.42 80 152V88C80 83.58 83.58 80 88 80H400L331.72 11.72C324.21 4.21 314.04 0 303.43 0H96.57C85.96 0 75.79 4.21 68.28 11.72L11.72 68.28C4.22 75.78 0 85.96 0 96.56V399.99H80V247.99C80 243.57 83.58 239.99 88 239.99H320L400 159.99H320V160Z" fill="#231916"/>
</svg>
