<svg width="124" height="17" viewBox="0 0 124 17" fill="none" xmlns="http://www.w3.org/2000/svg">
<path d="M23.1355 3.07922V0.519219C23.1355 0.342488 22.9853 0.199219 22.8002 0.199219H20.1178C19.9326 0.199219 19.7825 0.342488 19.7825 0.519219V3.07922C19.7825 3.25595 19.9326 3.39922 20.1178 3.39922H22.8002C22.9853 3.39922 23.1355 3.25595 23.1355 3.07922Z" fill="black"/>
<path d="M20.1178 6.59922C19.9325 6.59922 19.7825 6.74242 19.7825 6.91922V16.1992L22.6443 13.468C22.9586 13.168 23.1355 12.7608 23.1355 12.3368V6.91962C23.1355 6.74282 22.9854 6.59962 22.8002 6.59962H20.1178V6.59922Z" fill="black"/>
<path d="M110.647 0.199219V6.27922C110.647 6.45602 110.497 6.59922 110.312 6.59922H100.923C100.738 6.59922 100.588 6.45602 100.588 6.27922V0.199219H97.2352V5.93642C97.2352 6.36082 97.4116 6.76762 97.7264 7.06762L100.097 9.33042C100.412 9.63042 100.838 9.79922 101.283 9.79922H110.312C110.497 9.79922 110.647 9.94242 110.647 10.1192V12.6792C110.647 12.856 110.497 12.9992 110.312 12.9992H100.588L103.941 16.1992H109.953C110.397 16.1992 110.823 16.0308 111.138 15.7304L113.509 13.4676C113.823 13.1676 114 12.7604 114 12.3364V0.199219H110.647Z" fill="black"/>
<path d="M67.3099 12.9992C67.1247 12.9992 66.9747 12.856 66.9747 12.6792V0.199219H63.6217V12.3364C63.6217 12.7608 63.7981 13.1676 64.1129 13.4676L66.4839 15.7304C66.7982 16.0304 67.2249 16.1992 67.6691 16.1992H77.0335L80.3865 12.9992H67.3099Z" fill="black"/>
<path d="M84.9968 12.9992C84.8116 12.9992 84.6615 12.856 84.6615 12.6792V0.199219H81.3086V12.3364C81.3086 12.7608 81.485 13.1676 81.7998 13.4676L84.1708 15.7304C84.4851 16.0304 84.9118 16.1992 85.356 16.1992H94.7204L98.0734 12.9992H84.9968Z" fill="black"/>
<path d="M29.5057 16.1992V3.71922C29.5057 3.54242 29.6557 3.39922 29.841 3.39922H39.2293C39.4145 3.39922 39.5646 3.54242 39.5646 3.71922V16.1992H42.9175V4.06202C42.9175 3.63762 42.7411 3.23082 42.4263 2.93082L40.0554 0.668019C39.7414 0.367619 39.3148 0.199219 38.8701 0.199219H31.8766C31.432 0.199219 31.0057 0.367619 30.6914 0.668019L29.5061 1.79922V0.199219H27.8296L26.1531 1.79922V16.1992H29.5061H29.5057Z" fill="black"/>
<path d="M57.6044 0.199219H48.9345C48.4898 0.199219 48.0635 0.367619 47.7492 0.668019L44.8874 3.39922H57.964C58.1492 3.39922 58.2993 3.54242 58.2993 3.71922V6.27922C58.2993 6.45602 58.1492 6.59922 57.964 6.59922H48.9349C48.4902 6.59922 48.0639 6.76762 47.7496 7.06802L45.3786 9.33082C45.0643 9.63082 44.8874 10.038 44.8874 10.462V12.3364C44.8874 12.7608 45.0639 13.1676 45.3786 13.4676L47.7496 15.7304C48.0639 16.0304 48.4906 16.1992 48.9349 16.1992H54.2518C54.6965 16.1992 55.1228 16.0308 55.4371 15.7304L58.2989 12.9992H48.5753C48.39 12.9992 48.24 12.856 48.24 12.6792V10.1192C48.24 9.94242 48.39 9.79922 48.5753 9.79922H57.9636C58.1488 9.79922 58.2989 9.94242 58.2989 10.1192V16.1992H61.6518V4.06202C61.6518 3.63762 61.4754 3.23082 61.1606 2.93082L58.7897 0.668019C58.4753 0.368019 58.0486 0.199219 57.6044 0.199219Z" fill="black"/>
<path d="M13.4119 6.59922H3.68826C3.50301 6.59922 3.35297 6.45602 3.35297 6.27922V3.71922C3.35297 3.54242 3.50301 3.39922 3.68826 3.39922H16.7648L13.9031 0.668019C13.5883 0.367619 13.1621 0.199219 12.7174 0.199219H4.04745C3.60276 0.199219 3.17652 0.367619 2.86176 0.668019L0.491209 2.93042C0.176869 3.23042 0 3.63762 0 4.06162V16.1988H3.35297V10.1188C3.35297 9.94202 3.50301 9.79882 3.68826 9.79882H13.4119L16.7648 6.59882H13.4119V6.59922Z" fill="black"/>
</svg>
